# xmcd CD database file
#
# Track frame offsets:
#	150
#	22175
#	48767
#	70016
#	90859
#	113558
#	135589
#	159265
#	179875
#	206653
#
# Disc length: 3376 seconds
#
# Revision: 0
# Processed by: cddbd v1.5.2PL0 Copyright (c) Steve Scherf et al.
# Submitted via: CDex 1.51
#
DISCID=7d0d2e0a
DTITLE=J. W. Williams - Two Decades of Greatest Hits 1989-2009
DYEAR=2009
DGENRE=Blues
TTITLE0=Blue Shadows Falling
TTITLE1=Don't Ever Leave Me
TTITLE2=Don't Tell Me What You've Been Doing
TTITLE3=Big Boss Man
TTITLE4=Why Can't You Treat Me Like I Treat You
TTITLE5=Hoochie Coochie Man
TTITLE6=If Your Looking For Love
TTITLE7=This Must Be The Blues
TTITLE8=You're Breaking My Heart Baby
TTITLE9=J's Memories
EXTD=YEAR: 2009
EXTT0=
EXTT1=
EXTT2=
EXTT3=
EXTT4=
EXTT5=
EXTT6=
EXTT7=
EXTT8=
EXTT9=
PLAYORDER=
